<?xml version="1.0" encoding="UTF-8"?>
<svg version="1.1" xmlns="http://www.w3.org/2000/svg" width="500" height="500">
<path d="M0 0 C2.98831666 -0.02043811 5.97649015 -0.03521963 8.96484375 -0.046875 C9.7993103 -0.05315918 10.63377686 -0.05944336 11.49353027 -0.06591797 C36.54503604 -0.13890123 61.98692495 6.11824383 84 18 C84.96679688 18.495 85.93359375 18.99 86.9296875 19.5 C100.07865255 26.35385147 113.04329216 35.96689131 123 47 C123 47.66 123 48.32 123 49 C123.66 49 124.32 49 125 49 C129 53.47058824 129 53.47058824 129 56 C129.66 56 130.32 56 131 56 C140.1697403 68.00436956 146.95710359 82.00754464 150.875 96.5625 C151.06610352 97.26850342 151.25720703 97.97450684 151.45410156 98.7019043 C154.64747885 111.62175242 155.29787353 124.75472693 155.1953125 138 C155.19156731 139.45686648 155.1887275 140.91373553 155.18673706 142.37060547 C155.17921882 146.14505369 155.15967704 149.91933995 155.1373291 153.69372559 C155.11661105 157.56923229 155.10768074 161.444766 155.09765625 165.3203125 C155.07641572 172.88028097 155.04242909 180.44011752 155 188 C152.96275096 188.01502557 150.92546904 188.02562329 148.88818359 188.03442383 C147.18642471 188.04400871 147.18642471 188.04400871 145.45028687 188.05378723 C140.12599442 187.97078574 134.90172435 187.36565157 129.625 186.6875 C128.53429199 186.54997314 127.44358398 186.41244629 126.31982422 186.27075195 C103.97507746 183.36941847 83.09256466 177.2728902 63 167 C63 166.34 63 165.68 63 165 C62.484375 164.9175 61.96875 164.835 61.4375 164.75 C57.95544268 163.67859775 55.12799115 161.86476395 52 160 C52 159.34 52 158.68 52 158 C51.236875 157.71125 50.47375 157.4225 49.6875 157.125 C47 156 47 156 44 154 C44 153.34 44 152.68 44 152 C43.47277344 151.79761719 42.94554687 151.59523437 42.40234375 151.38671875 C38.92926268 149.38193212 36.36607525 146.65452428 33.5625 143.8125 C33.00240234 143.26013672 32.44230469 142.70777344 31.86523438 142.13867188 C22 132.22739207 22 132.22739207 22 128 C21.34 128 20.68 128 20 128 C4.89132993 102.31900993 -0.21575385 78.39089725 -0.09765625 48.6328125 C-0.09578454 47.21792654 -0.09436421 45.80303992 -0.09336853 44.38815308 C-0.08960251 40.71565877 -0.07982496 37.04320582 -0.06866455 33.37072754 C-0.05832106 29.60262613 -0.05384358 25.83451785 -0.04882812 22.06640625 C-0.03819555 14.71091891 -0.02119301 7.35546531 0 0 Z " fill="#80A4FC" transform="translate(86,59)"/>
<path d="M0 0 C0.91978638 0.00338379 1.83957275 0.00676758 2.78723145 0.01025391 C5.03397491 0.0190103 7.28063903 0.03129161 9.52734375 0.046875 C9.59747607 9.25398138 9.65047088 18.460993 9.68278027 27.66831017 C9.69830283 31.94563746 9.7192891 36.22277936 9.75366211 40.5 C9.78674272 44.64328402 9.80429693 48.78639203 9.81197548 52.92979813 C9.81743316 54.49470407 9.82808408 56.05960261 9.84453392 57.62443161 C10.09888883 82.87128797 3.83937078 104.02960191 -8.47265625 126.046875 C-8.80265625 126.706875 -9.13265625 127.366875 -9.47265625 128.046875 C-10.13265625 128.046875 -10.79265625 128.046875 -11.47265625 128.046875 C-11.69566406 128.75070313 -11.91867187 129.45453125 -12.1484375 130.1796875 C-13.76236426 133.67414839 -16.03308602 136.17268722 -18.66015625 138.921875 C-19.1512085 139.44491211 -19.64226074 139.96794922 -20.14819336 140.50683594 C-21.58191444 142.02779837 -23.0259369 143.53828597 -24.47265625 145.046875 C-25.20226562 145.81773437 -25.931875 146.58859375 -26.68359375 147.3828125 C-30.07954556 150.8933956 -30.07954556 150.8933956 -31.47265625 152.046875 C-32.13265625 152.046875 -32.79265625 152.046875 -33.47265625 152.046875 C-33.47265625 152.706875 -33.47265625 153.366875 -33.47265625 154.046875 C-35.40069122 155.55787419 -37.31603617 156.93767868 -39.34765625 158.296875 C-39.94553955 158.70091553 -40.54342285 159.10495605 -41.15942383 159.52124023 C-42.92444429 160.70587002 -44.69736885 161.87770735 -46.47265625 163.046875 C-47.28347656 163.58957031 -48.09429687 164.13226563 -48.9296875 164.69140625 C-70.50412848 178.40685647 -96.71518291 185.0926498 -121.97265625 187.171875 C-122.92785156 187.25824219 -123.88304687 187.34460938 -124.8671875 187.43359375 C-131.41938275 187.99217061 -137.89885558 188.08535712 -144.47265625 188.046875 C-144.54277593 179.21365095 -144.59577714 170.38052558 -144.62809277 161.54708195 C-144.64361802 157.44347731 -144.66460941 153.3400658 -144.69897461 149.23657227 C-144.73204538 145.26187231 -144.74960744 141.28735574 -144.75728798 137.31252861 C-144.76274737 135.81098997 -144.77340195 134.30945908 -144.78984642 132.80800056 C-145.0965003 103.59430319 -135.90085227 73.39386103 -116.47265625 51.046875 C-115.81265625 51.046875 -115.15265625 51.046875 -114.47265625 51.046875 C-114.47265625 50.386875 -114.47265625 49.726875 -114.47265625 49.046875 C-113.81265625 49.046875 -113.15265625 49.046875 -112.47265625 49.046875 C-112.0859375 48.17289063 -112.0859375 48.17289063 -111.69140625 47.28125 C-110.37431608 44.8665847 -108.92177241 43.22947323 -106.97265625 41.296875 C-106.06 40.37648438 -106.06 40.37648438 -105.12890625 39.4375 C-103.47265625 38.046875 -103.47265625 38.046875 -101.47265625 38.046875 C-101.47265625 37.386875 -101.47265625 36.726875 -101.47265625 36.046875 C-99.21728043 34.20648833 -96.96126334 32.488421 -94.59765625 30.796875 C-93.90655762 30.29889404 -93.21545898 29.80091309 -92.50341797 29.2878418 C-65.61277279 10.08427048 -33.0779053 -0.23341716 0 0 Z " fill="#C772FA" transform="translate(403.47265625,58.953125)"/>
<path d="M0 0 C1.36451294 0.06441284 1.36451294 0.06441284 2.7565918 0.13012695 C3.713479 0.18257568 4.67036621 0.23502441 5.65625 0.2890625 C7.14282104 0.3667688 7.14282104 0.3667688 8.65942383 0.44604492 C10.62159274 0.55083729 12.58359863 0.65873684 14.54541016 0.77001953 C16.63749526 0.88544222 18.73075693 0.97945736 20.82421875 1.06640625 C54.26838835 2.84028847 86.62712638 17.29433022 109.90625 41.36328125 C131.04345932 65.32612445 136.55029402 93.52712406 136.3515625 124.66015625 C136.34782124 126.40991553 136.34497955 128.15967694 136.34298706 129.90943909 C136.33543805 134.4614973 136.31586727 139.01342298 136.2935791 143.56542969 C136.27292985 148.23175261 136.26394501 152.89809745 136.25390625 157.56445312 C136.23261095 166.68104705 136.19858388 175.79754365 136.15625 184.9140625 C133.95052519 184.92087146 131.74479419 184.92568799 129.5390625 184.9296875 C128.31074707 184.93258789 127.08243164 184.93548828 125.81689453 184.93847656 C92.77988556 184.7181417 59.09633841 172.42483008 33.15625 151.9140625 C33.15625 151.2540625 33.15625 150.5940625 33.15625 149.9140625 C32.49625 149.9140625 31.83625 149.9140625 31.15625 149.9140625 C31.15625 149.2540625 31.15625 148.5940625 31.15625 147.9140625 C30.57359375 147.65625 29.9909375 147.3984375 29.390625 147.1328125 C26.9759597 145.81572233 25.33884823 144.36317866 23.40625 142.4140625 C22.79265625 141.805625 22.1790625 141.1971875 21.546875 140.5703125 C20.15625 138.9140625 20.15625 138.9140625 20.15625 136.9140625 C19.49625 136.9140625 18.83625 136.9140625 18.15625 136.9140625 C16.34596867 134.76549627 14.67697608 132.62229716 13.03125 130.3515625 C12.29527588 129.33642578 12.29527588 129.33642578 11.54443359 128.30078125 C-4.75954505 105.3359336 -10.25062303 79.66040863 -10.0390625 51.79296875 C-10.0353187 50.31225275 -10.03247822 48.83153422 -10.03048706 47.35081482 C-10.02295792 43.5089498 -10.00340581 39.66724315 -9.9810791 35.82543945 C-9.96038548 31.88299704 -9.95143579 27.94052829 -9.94140625 23.99804688 C-9.92014632 16.30331428 -9.88614529 8.60871082 -9.84375 0.9140625 C-6.43820811 0.19325138 -3.4813216 -0.17461823 0 0 Z " fill="#BB95FB" transform="translate(210.84375,255.0859375)"/>
<path d="M0 0 C2.98831666 -0.02043811 5.97649015 -0.03521963 8.96484375 -0.046875 C9.7993103 -0.05315918 10.63377686 -0.05944336 11.49353027 -0.06591797 C36.54503604 -0.13890123 61.98692495 6.11824383 84 18 C84.96679688 18.495 85.93359375 18.99 86.9296875 19.5 C100.07865255 26.35385147 113.04329216 35.96689131 123 47 C123 47.66 123 48.32 123 49 C123.66 49 124.32 49 125 49 C129 53.47058824 129 53.47058824 129 56 C129.66 56 130.32 56 131 56 C140.1697403 68.00436956 146.95710359 82.00754464 150.875 96.5625 C151.06610352 97.26850342 151.25720703 97.97450684 151.45410156 98.7019043 C154.64747885 111.62175242 155.29787353 124.75472693 155.1953125 138 C155.19156731 139.45686648 155.1887275 140.91373553 155.18673706 142.37060547 C155.17921882 146.14505369 155.15967704 149.91933995 155.1373291 153.69372559 C155.11661105 157.56923229 155.10768074 161.444766 155.09765625 165.3203125 C155.07641572 172.88028097 155.04242909 180.44011752 155 188 C152.96275096 188.01502557 150.92546904 188.02562329 148.88818359 188.03442383 C147.18642471 188.04400871 147.18642471 188.04400871 145.45028687 188.05378723 C140.12599442 187.97078574 134.90172435 187.36565157 129.625 186.6875 C128.53429199 186.54997314 127.44358398 186.41244629 126.31982422 186.27075195 C103.97507746 183.36941847 83.09256466 177.2728902 63 167 C63 166.34 63 165.68 63 165 C62.484375 164.9175 61.96875 164.835 61.4375 164.75 C57.95544268 163.67859775 55.12799115 161.86476395 52 160 C52 159.34 52 158.68 52 158 C51.236875 157.71125 50.47375 157.4225 49.6875 157.125 C47 156 47 156 44 154 C44 153.34 44 152.68 44 152 C43.47277344 151.79761719 42.94554687 151.59523437 42.40234375 151.38671875 C38.92926268 149.38193212 36.36607525 146.65452428 33.5625 143.8125 C33.00240234 143.26013672 32.44230469 142.70777344 31.86523438 142.13867188 C22 132.22739207 22 132.22739207 22 128 C21.34 128 20.68 128 20 128 C4.89132993 102.31900993 -0.21575385 78.39089725 -0.09765625 48.6328125 C-0.09578454 47.21792654 -0.09436421 45.80303992 -0.09336853 44.38815308 C-0.08960251 40.71565877 -0.07982496 37.04320582 -0.06866455 33.37072754 C-0.05832106 29.60262613 -0.05384358 25.83451785 -0.04882812 22.06640625 C-0.03819555 14.71091891 -0.02119301 7.35546531 0 0 Z M21 21 C20.92439602 26.73931167 20.87073182 32.47831765 20.83520508 38.21801758 C20.82035544 40.16012638 20.80007048 42.10220317 20.77368164 44.04418945 C20.63453953 54.56715274 20.84986916 64.86647657 22.32421875 75.30078125 C22.49966972 76.54507149 22.49966972 76.54507149 22.67866516 77.8144989 C24.09374319 86.84656126 26.80505345 95.26585221 30.75 103.5 C31.10215576 104.23629639 31.45431152 104.97259277 31.81713867 105.73120117 C45.02929702 132.73512887 70.47171705 150.87165208 98.3125 160.6875 C107.92173619 163.76166225 117.6202162 166.08801942 127.75292969 166.0300293 C128.73735046 166.02569382 129.72177124 166.02135834 130.73602295 166.01689148 C131.48313538 166.01131729 132.2302478 166.0057431 133 166 C133.0768728 159.01154737 133.1289403 152.02320611 133.16479492 145.03442383 C133.17976238 142.66328863 133.2001436 140.29218054 133.22631836 137.92114258 C133.40128282 121.64944812 133.39067939 106.34909311 126.6875 91.1875 C126.38263672 90.4759375 126.07777344 89.764375 125.76367188 89.03125 C113.65678096 61.39431399 89.70287778 39.95547133 61.81811523 29.03857422 C53.35072977 25.87229497 44.933626 23.47382155 36 22 C34.32164063 21.71769531 34.32164063 21.71769531 32.609375 21.4296875 C28.67902935 20.96178921 24.95550787 20.97185602 21 21 Z " fill="#F6F6FB" transform="translate(86,59)"/>
<path d="M0 0 C0.91978638 0.00338379 1.83957275 0.00676758 2.78723145 0.01025391 C5.03397491 0.0190103 7.28063903 0.03129161 9.52734375 0.046875 C9.59747607 9.25398138 9.65047088 18.460993 9.68278027 27.66831017 C9.69830283 31.94563746 9.7192891 36.22277936 9.75366211 40.5 C9.78674272 44.64328402 9.80429693 48.78639203 9.81197548 52.92979813 C9.81743316 54.49470407 9.82808408 56.05960261 9.84453392 57.62443161 C10.09888883 82.87128797 3.83937078 104.02960191 -8.47265625 126.046875 C-8.80265625 126.706875 -9.13265625 127.366875 -9.47265625 128.046875 C-10.13265625 128.046875 -10.79265625 128.046875 -11.47265625 128.046875 C-11.69566406 128.75070313 -11.91867187 129.45453125 -12.1484375 130.1796875 C-13.76236426 133.67414839 -16.03308602 136.17268722 -18.66015625 138.921875 C-19.1512085 139.44491211 -19.64226074 139.96794922 -20.14819336 140.50683594 C-21.58191444 142.02779837 -23.0259369 143.53828597 -24.47265625 145.046875 C-25.20226562 145.81773437 -25.931875 146.58859375 -26.68359375 147.3828125 C-30.07954556 150.8933956 -30.07954556 150.8933956 -31.47265625 152.046875 C-32.13265625 152.046875 -32.79265625 152.046875 -33.47265625 152.046875 C-33.47265625 152.706875 -33.47265625 153.366875 -33.47265625 154.046875 C-35.40069122 155.55787419 -37.31603617 156.93767868 -39.34765625 158.296875 C-39.94553955 158.70091553 -40.54342285 159.10495605 -41.15942383 159.52124023 C-42.92444429 160.70587002 -44.69736885 161.87770735 -46.47265625 163.046875 C-47.28347656 163.58957031 -48.09429687 164.13226563 -48.9296875 164.69140625 C-70.50412848 178.40685647 -96.71518291 185.0926498 -121.97265625 187.171875 C-122.92785156 187.25824219 -123.88304687 187.34460938 -124.8671875 187.43359375 C-131.41938275 187.99217061 -137.89885558 188.08535712 -144.47265625 188.046875 C-144.54277593 179.21365095 -144.59577714 170.38052558 -144.62809277 161.54708195 C-144.64361802 157.44347731 -144.66460941 153.3400658 -144.69897461 149.23657227 C-144.73204538 145.26187231 -144.74960744 141.28735574 -144.75728798 137.31252861 C-144.76274737 135.81098997 -144.77340195 134.30945908 -144.78984642 132.80800056 C-145.0965003 103.59430319 -135.90085227 73.39386103 -116.47265625 51.046875 C-115.81265625 51.046875 -115.15265625 51.046875 -114.47265625 51.046875 C-114.47265625 50.386875 -114.47265625 49.726875 -114.47265625 49.046875 C-113.81265625 49.046875 -113.15265625 49.046875 -112.47265625 49.046875 C-112.0859375 48.17289063 -112.0859375 48.17289063 -111.69140625 47.28125 C-110.37431608 44.8665847 -108.92177241 43.22947323 -106.97265625 41.296875 C-106.06 40.37648438 -106.06 40.37648438 -105.12890625 39.4375 C-103.47265625 38.046875 -103.47265625 38.046875 -101.47265625 38.046875 C-101.47265625 37.386875 -101.47265625 36.726875 -101.47265625 36.046875 C-99.21728043 34.20648833 -96.96126334 32.488421 -94.59765625 30.796875 C-93.90655762 30.29889404 -93.21545898 29.80091309 -92.50341797 29.2878418 C-65.61277279 10.08427048 -33.0779053 -0.23341716 0 0 Z M-91.47265625 55.046875 C-92.15328125 55.65402344 -92.83390625 56.26117188 -93.53515625 56.88671875 C-112.4820136 74.82483138 -122.96256956 100.99780107 -123.71166992 126.81665039 C-123.80079325 132.93613133 -123.73644309 139.0526149 -123.66015625 145.171875 C-123.64506334 147.30598001 -123.63138319 149.44009549 -123.61914062 151.57421875 C-123.58654346 156.73203625 -123.53502263 161.88933512 -123.47265625 167.046875 C-106.85412747 165.13577657 -106.85412747 165.13577657 -90.59765625 161.359375 C-89.74381348 161.10663818 -88.8899707 160.85390137 -88.01025391 160.59350586 C-79.67377822 158.0047944 -72.02615576 154.39159772 -64.47265625 150.046875 C-63.46847656 149.469375 -62.46429688 148.891875 -61.4296875 148.296875 C-38.19970852 134.14264239 -21.40738334 113.03082334 -14.26171875 86.71875 C-12.25548179 77.38279581 -11.18176344 68.49086896 -11.27734375 58.9375 C-11.28017365 57.84467712 -11.28300354 56.75185425 -11.28591919 55.62591553 C-11.29699065 52.182784 -11.32206992 48.73992606 -11.34765625 45.296875 C-11.35770293 42.94271213 -11.3668258 40.58854512 -11.375 38.234375 C-11.39688705 32.50511717 -11.43023171 26.77601564 -11.47265625 21.046875 C-41.80845079 20.80508504 -69.32727834 35.286837 -91.47265625 55.046875 Z " fill="#FAF7FC" transform="translate(403.47265625,58.953125)"/>
<path d="M0 0 C1.36451294 0.06441284 1.36451294 0.06441284 2.7565918 0.13012695 C3.713479 0.18257568 4.67036621 0.23502441 5.65625 0.2890625 C7.14282104 0.3667688 7.14282104 0.3667688 8.65942383 0.44604492 C10.62159274 0.55083729 12.58359863 0.65873684 14.54541016 0.77001953 C16.63749526 0.88544222 18.73075693 0.97945736 20.82421875 1.06640625 C54.26838835 2.84028847 86.62712638 17.29433022 109.90625 41.36328125 C131.04345932 65.32612445 136.55029402 93.52712406 136.3515625 124.66015625 C136.34782124 126.40991553 136.34497955 128.15967694 136.34298706 129.90943909 C136.33543805 134.4614973 136.31586727 139.01342298 136.2935791 143.56542969 C136.27292985 148.23175261 136.26394501 152.89809745 136.25390625 157.56445312 C136.23261095 166.68104705 136.19858388 175.79754365 136.15625 184.9140625 C133.95052519 184.92087146 131.74479419 184.92568799 129.5390625 184.9296875 C128.31074707 184.93258789 127.08243164 184.93548828 125.81689453 184.93847656 C92.77988556 184.7181417 59.09633841 172.42483008 33.15625 151.9140625 C33.15625 151.2540625 33.15625 150.5940625 33.15625 149.9140625 C32.49625 149.9140625 31.83625 149.9140625 31.15625 149.9140625 C31.15625 149.2540625 31.15625 148.5940625 31.15625 147.9140625 C30.57359375 147.65625 29.9909375 147.3984375 29.390625 147.1328125 C26.9759597 145.81572233 25.33884823 144.36317866 23.40625 142.4140625 C22.79265625 141.805625 22.1790625 141.1971875 21.546875 140.5703125 C20.15625 138.9140625 20.15625 138.9140625 20.15625 136.9140625 C19.49625 136.9140625 18.83625 136.9140625 18.15625 136.9140625 C16.34596867 134.76549627 14.67697608 132.62229716 13.03125 130.3515625 C12.29527588 129.33642578 12.29527588 129.33642578 11.54443359 128.30078125 C-4.75954505 105.3359336 -10.25062303 79.66040863 -10.0390625 51.79296875 C-10.0353187 50.31225275 -10.03247822 48.83153422 -10.03048706 47.35081482 C-10.02295792 43.5089498 -10.00340581 39.66724315 -9.9810791 35.82543945 C-9.96038548 31.88299704 -9.95143579 27.94052829 -9.94140625 23.99804688 C-9.92014632 16.30331428 -9.88614529 8.60871082 -9.84375 0.9140625 C-6.43820811 0.19325138 -3.4813216 -0.17461823 0 0 Z M11.15625 20.9140625 C11.08086441 26.83241131 11.02707856 32.7504675 10.99145508 38.66918945 C10.97657061 40.67347087 10.95625647 42.67772096 10.92993164 44.68188477 C10.49362777 78.80769162 18.09155514 106.90177604 42.19921875 132.00390625 C59.07956494 148.95134888 87.41193629 163.6884457 111.83862305 163.94189453 C112.98584839 163.92811768 112.98584839 163.92811768 114.15625 163.9140625 C114.24982742 155.73277551 114.32045175 147.55172015 114.36349869 139.37002659 C114.38418173 135.5689989 114.41213521 131.76834306 114.45800781 127.9675293 C115.16282342 99.77671596 115.16282342 99.77671596 106.28125 73.3515625 C105.93392822 72.6915625 105.58660645 72.0315625 105.22875977 71.3515625 C102.62560881 66.51072022 99.74018538 62.09054186 96.15625 57.9140625 C95.68316406 57.29917969 95.21007812 56.68429687 94.72265625 56.05078125 C79.05916872 36.55930924 52.75030536 24.37106624 28.28125 21.4140625 C24.15012152 21.00741898 20.07595161 20.89581247 15.92919922 20.90429688 C14.5861824 20.90641174 14.5861824 20.90641174 13.21603394 20.90856934 C12.19644089 20.91128845 12.19644089 20.91128845 11.15625 20.9140625 Z " fill="#FAF8FC" transform="translate(210.84375,255.0859375)"/>
<path d="M0 0 C12.54566033 3.46087181 23.2562855 10.53071173 33 19 C33.81984375 19.68707031 34.6396875 20.37414062 35.484375 21.08203125 C45.07250101 29.34509015 53.01501596 38.82911698 59 50 C59.87978516 51.58748047 59.87978516 51.58748047 60.77734375 53.20703125 C65.25312678 61.63815742 67.99372173 69.68051385 70 79 C70.17797119 79.81742676 70.35594238 80.63485352 70.53930664 81.47705078 C71.20517081 86.56895324 71.12206605 91.61270098 71.09765625 96.7421875 C71.0962413 97.86569611 71.09482635 98.98920471 71.09336853 100.14675903 C71.08778664 103.72286683 71.07523741 107.29891123 71.0625 110.875 C71.05748266 113.30468659 71.05292016 115.73437417 71.04882812 118.1640625 C71.03782314 124.10939651 71.02110301 130.05469372 71 136 C69.2709226 136.02725341 67.54171824 136.04650987 65.8125 136.0625 C64.84957031 136.07410156 63.88664062 136.08570313 62.89453125 136.09765625 C60.14423487 136.00486622 57.67520409 135.62111685 55 135 C55 134.67 55 134.34 55 134 C59.62 134 64.24 134 69 134 C69.05015208 128.45395158 69.08606791 122.90804065 69.10986328 117.36181641 C69.11980304 115.48256119 69.13335954 113.60332093 69.15087891 111.72412109 C70.0686217 91.79404509 70.0686217 91.79404509 65 73 C64.835 71.783125 64.67 70.56625 64.5 69.3125 C64.335 68.219375 64.17 67.12625 64 66 C63.01 65.505 63.01 65.505 62 65 C62 64.34 62 63.68 62 63 C61.01 62.505 61.01 62.505 60 62 C60 60.02 60 58.04 60 56 C59.38125 55.79375 58.7625 55.5875 58.125 55.375 C55.15346355 53.45224112 54.86975341 51.33405473 54 48 C53.67 48 53.34 48 53 48 C53 46.35 53 44.7 53 43 C52.34 43 51.68 43 51 43 C49.53515625 40.31445312 49.53515625 40.31445312 48.0703125 37.62890625 C47.08589976 35.83381685 47.08589976 35.83381685 45 35 C44.505 35.99 44.505 35.99 44 37 C43.731875 36.05125 43.46375 35.1025 43.1875 34.125 C42.25013412 30.74732727 42.25013412 30.74732727 39 29 C38.34 29.66 37.68 30.32 37 31 C36.505 29.515 36.505 29.515 36 28 C36.66 28 37.32 28 38 28 C36.93344655 25.09121786 36.32878952 24.16439476 33.5 22.75 C31.11573734 21.90421737 31.11573734 21.90421737 29 22 C28.7525 21.236875 28.505 20.47375 28.25 19.6875 C26.8332086 16.64139849 25.85483114 15.7049686 23 14 C20.41118198 13.63965477 20.41118198 13.63965477 17.75 13.8125 C16.85796875 13.83957031 15.9659375 13.86664063 15.046875 13.89453125 C14.37140625 13.92933594 13.6959375 13.96414062 13 14 C13.33 12.68 13.66 11.36 14 10 C13.34 10 12.68 10 12 10 C11.67 9.01 11.34 8.02 11 7 C9.9275 6.9175 8.855 6.835 7.75 6.75 C3.72149234 5.94429847 2.43794344 5.21808534 0 2 C0 1.34 0 0.68 0 0 Z " fill="#9481EB" transform="translate(148,89)"/>
<path d="M0 0 C0.10308704 6.75442151 0.17215587 13.50863387 0.21972656 20.26367188 C0.23959859 22.55216041 0.26670572 24.84059988 0.30175781 27.12890625 C0.7519595 57.31890185 -4.93393126 84.18616384 -25.078125 107.55859375 C-27.51757965 109.38818474 -29.02138225 109.29272623 -32 109 C-31.8125 107.1875 -31.8125 107.1875 -31 105 C-26.82142857 102 -26.82142857 102 -24 102 C-24 101.01 -24 100.02 -24 99 C-22.515 98.505 -22.515 98.505 -21 98 C-20.505 97.01 -20.505 97.01 -20 96 C-20.99 95.67 -21.98 95.34 -23 95 C-22.375 92.5625 -22.375 92.5625 -21 90 C-17.875 89.1875 -17.875 89.1875 -15 89 C-15 86.36 -15 83.72 -15 81 C-12.03 80.505 -12.03 80.505 -9 80 C-8.05844645 74.61969398 -7.31158515 69.21782486 -6.78515625 63.78125 C-6.20984848 58.20984848 -6.20984848 58.20984848 -4 56 C-3.54188325 54.02764667 -3.54188325 54.02764667 -3.375 51.875 C-3.25125 50.59625 -3.1275 49.3175 -3 48 C-2.34 48 -1.68 48 -1 48 C-1 32.49 -1 16.98 -1 1 C-5.12403473 2.64856825 -5.12403473 2.64856825 -7 6 C-11 6 -11 6 -14 5 C-16.6898277 5 -18.34719916 5.31989703 -20.875 6.0625 C-24.24363893 6.95127374 -26.60816344 7.05994893 -30 6 C-23.4079096 -0.5920904 -8.81767969 -0.04573485 0 0 Z " fill="#F35DF3" transform="translate(392,80)"/>
<path d="M0 0 C1.75802342 3.51604685 2.68412745 6.27768005 3.5625 10.0625 C3.81128906 11.10535156 4.06007813 12.14820313 4.31640625 13.22265625 C6.30453921 24.20851096 6.13269871 35.23588239 6.09765625 46.35546875 C6.0957875 48.11094624 6.09436576 49.86642426 6.09336853 51.62190247 C6.08957932 56.20685303 6.0797804 60.79177111 6.06866455 65.37670898 C6.05837246 70.06949423 6.05385432 74.76228481 6.04882812 79.45507812 C6.03815435 88.63673289 6.02112196 97.81836373 6 107 C1.38 107 -3.24 107 -8 107 C-8 106.67 -8 106.34 -8 106 C-2.06 105.505 -2.06 105.505 4 105 C3.83628906 103.32728027 3.67257812 101.65456055 3.50390625 99.93115234 C2.89969112 92.64580442 2.89142796 85.40761592 2.9375 78.1015625 C2.94192273 76.69493787 2.94573462 75.2883112 2.94897461 73.88168335 C2.96217735 68.71887793 2.98637166 63.55613604 3.01037598 58.39337158 C3.03031806 54.01320091 3.04586736 49.63305439 3.05593872 45.25284958 C3.0622884 43.23142511 3.07486022 41.21002315 3.08764648 39.18862915 C3.14802387 23.99728646 3.14802387 23.99728646 1 9 C0.67 9 0.34 9 0 9 C0 6.03 0 3.06 0 0 Z " fill="#D6B2F2" transform="translate(341,333)"/>
<path d="M0 0 C0.33 0 0.66 0 1 0 C0.67 2.31 0.34 4.62 0 7 C-0.66 7 -1.32 7 -2 7 C-2.268125 7.53625 -2.53625 8.0725 -2.8125 8.625 C-7 17 -7 17 -8.4375 19.8125 C-8.953125 20.864375 -9.46875 21.91625 -10 23 C-10.35578125 23.71542969 -10.7115625 24.43085938 -11.078125 25.16796875 C-13.2652635 29.76558032 -14.11689076 32.8568065 -14 38 C-14.46921875 38.74121094 -14.9384375 39.48242188 -15.421875 40.24609375 C-17.27869951 43.48634444 -17.70300803 46.12290734 -18.1875 49.8125 C-18.42533203 51.55466797 -18.42533203 51.55466797 -18.66796875 53.33203125 C-18.77753906 54.21246094 -18.88710938 55.09289062 -19 56 C-18.34 56.33 -17.68 56.66 -17 57 C-17.495 57.495 -17.495 57.495 -18 58 C-18.0730839 60.42547188 -17.99639143 62.83612785 -17.9375 65.26171875 C-18 68 -18 68 -18.46484375 70.58984375 C-19.26111451 75.66389029 -19.36989169 80.74719849 -19.5625 85.875 C-19.60568359 86.94492188 -19.64886719 88.01484375 -19.69335938 89.1171875 C-19.79892743 91.74465903 -19.89991795 94.37231378 -20 97 C-15.05 97 -10.1 97 -5 97 C-5 97.33 -5 97.66 -5 98 C-10.28 98.66 -15.56 99.32 -21 100 C-21.10075252 93.851771 -21.17233276 87.70404803 -21.21972656 81.55517578 C-21.23953472 79.47436123 -21.26658881 77.39359989 -21.30175781 75.31298828 C-21.76453744 47.1787093 -16.86891387 22.95944075 0 0 Z " fill="#8D87EE" transform="translate(301,126)"/>
<path d="M0 0 C0 0.66 0 1.32 0 2 C-0.98742187 2.47050781 -1.97484375 2.94101563 -2.9921875 3.42578125 C-4.286666 4.05425994 -5.58092553 4.68318981 -6.875 5.3125 C-7.52597656 5.62123047 -8.17695313 5.92996094 -8.84765625 6.24804688 C-12.19676398 7.88807385 -13.89005879 8.83508818 -16 12 C-17.79874412 12.96361292 -19.59760437 13.9270155 -21.3984375 14.88671875 C-23.66732147 16.4638698 -24.04460815 18.47503582 -25 21 C-27.4375 21.625 -27.4375 21.625 -30 22 C-31.93084565 23.58605179 -32.88290172 24.76580344 -34 27 C-34.66 27.33 -35.32 27.66 -36 28 C-36.66 28.99 -37.32 29.98 -38 31 C-39.32 30.67 -40.64 30.34 -42 30 C-42.33 31.32 -42.66 32.64 -43 34 C-42.34 34 -41.68 34 -41 34 C-41.33 34.99 -41.66 35.98 -42 37 C-45 38 -45 38 -48 38 C-48 38.66 -48 39.32 -48 40 C-48.66 40 -49.32 40 -50 40 C-48.91147043 30.42434144 -38.10521634 22.7639255 -31 17 C-8.93377483 0 -8.93377483 0 0 0 Z " fill="#A472F0" transform="translate(352,89)"/>
<path d="M0 0 C0.99 0.33 1.98 0.66 3 1 C-4.70723865 8.534219 -12.67194753 14.6169262 -22 20 C-22.6094043 20.35336426 -23.21880859 20.70672852 -23.84667969 21.07080078 C-35.68219766 27.78834071 -51.13274865 34.90932796 -65 34 C-64.67 33.01 -64.34 32.02 -64 31 C-62.6078125 31.0928125 -62.6078125 31.0928125 -61.1875 31.1875 C-58.00705851 31.37085979 -58.00705851 31.37085979 -56.5625 29.4375 C-56.046875 28.963125 -55.53125 28.48875 -55 28 C-52.6618385 28.29758419 -50.32817964 28.63239269 -48 29 C-45.95021083 28.22527948 -45.95021083 28.22527948 -44 27 C-41.6756398 26.30269194 -39.34326294 25.63087848 -37 25 C-37 23.68 -37 22.36 -37 21 C-33.98968256 20.06576355 -33.13349732 19.95550089 -30 21 C-27.41666667 20.91666667 -27.41666667 20.91666667 -25 20 C-24.67 19.34 -24.34 18.68 -24 18 C-23.67 17.34 -23.34 16.68 -23 16 C-20.375 15.25 -20.375 15.25 -18 15 C-17.67 14.01 -17.34 13.02 -17 12 C-16.21625 11.9175 -15.4325 11.835 -14.625 11.75 C-11.87359896 11.28389075 -11.87359896 11.28389075 -10.8125 9.0625 C-10.544375 8.381875 -10.27625 7.70125 -10 7 C-9.34 6.34 -8.68 5.68 -8 5 C-7.505 5.495 -7.505 5.495 -7 6 C-6.34 5.01 -5.68 4.02 -5 3 C-3.67405895 2.63837971 -2.34061543 2.30271961 -1 2 C-0.67 1.34 -0.34 0.68 0 0 Z " fill="#E679F0" transform="translate(361,189)"/>
<path d="M0 0 C2.36069916 2.36069916 2.25515587 2.97713825 2.4375 6.1875 C2.9049026 11.45640209 4.64433428 15.28866855 7 20 C7.99 19.67 8.98 19.34 10 19 C9.88140625 19.56847656 9.7628125 20.13695312 9.640625 20.72265625 C8.91968264 25.04110101 8.58866117 28.04783356 10.8125 31.9375 C12.83046354 34.94006287 12.83046354 34.94006287 15 37 C14.67 37.66 14.34 38.32 14 39 C15.485 38.505 15.485 38.505 17 38 C17.66 38.66 18.32 39.32 19 40 C18.67 40.99 18.34 41.98 18 43 C19.65 43.66 21.3 44.32 23 45 C22.67 45.99 22.34 46.98 22 48 C22.38932856 50.14255793 22.38932856 50.14255793 23 52 C23.66 52 24.32 52 25 52 C27.625 54.375 27.625 54.375 30 57 C30 57.66 30 58.32 30 59 C31.98 58.505 31.98 58.505 34 58 C33.67 58.99 33.34 59.98 33 61 C33.99 60.67 34.98 60.34 36 60 C35.67 61.32 35.34 62.64 35 64 C20.13053949 57.60815046 10.18243536 36.89047761 4.03125 22.86328125 C1.37310963 15.48291424 -0.22567435 7.851092 0 0 Z " fill="#72DFF5" transform="translate(109,132)"/>
<path d="M0 0 C0 15.84 0 31.68 0 48 C-0.33 48 -0.66 48 -1 48 C-1 32.49 -1 16.98 -1 1 C-5.12403473 2.64856825 -5.12403473 2.64856825 -7 6 C-11 6 -11 6 -14 5 C-16.6898277 5 -18.34719916 5.31989703 -20.875 6.0625 C-24.24363893 6.95127374 -26.60816344 7.05994893 -30 6 C-23.51284494 -0.48715506 -8.42345457 0 0 0 Z " fill="#CC5DDE" transform="translate(392,80)"/>
<path d="M0 0 C0.94875 0.350625 1.8975 0.70125 2.875 1.0625 C5.87060172 2.35026777 5.87060172 2.35026777 8 1 C8.103125 2.258125 8.20625 3.51625 8.3125 4.8125 C8.73368298 8.28573354 9.26736864 9.7228072 12 12 C12.6875 14.1875 12.6875 14.1875 13 16 C13.66 16 14.32 16 15 16 C15.33 15.01 15.66 14.02 16 13 C16.33 13.99 16.66 14.98 17 16 C18.49434625 19.83704531 20.77346932 21.68787667 24 24.1875 C24.886875 24.88230469 25.77375 25.57710938 26.6875 26.29296875 C28.87135989 28.00709347 28.87135989 28.00709347 31 29 C31 29.66 31 30.32 31 31 C31.99 31.33 32.98 31.66 34 32 C33.01 32.495 33.01 32.495 32 33 C4.16010158 13.57558418 4.16010158 13.57558418 0.22265625 1.64453125 C0.14917969 1.10183594 0.07570312 0.55914062 0 0 Z " fill="#ACCCF6" transform="translate(239,368)"/>
<path d="M0 0 C10.08172512 5.34582578 17.85325448 17.59571071 22 28 C21.67 28.99 21.34 29.98 21 31 C20.34 31 19.68 31 19 31 C19 30.34 19 29.68 19 29 C18.34 29 17.68 29 17 29 C16.80083984 28.09507812 16.80083984 28.09507812 16.59765625 27.171875 C16.33275391 25.97304688 16.33275391 25.97304688 16.0625 24.75 C15.88847656 23.96109375 15.71445312 23.1721875 15.53515625 22.359375 C15.052444 20.23121297 14.53836822 18.11467158 14 16 C12.824375 16.0309375 12.824375 16.0309375 11.625 16.0625 C9 16 9 16 7 15 C7 13.02 7 11.04 7 9 C4.69 8.34 2.38 7.68 0 7 C0.33 6.01 0.66 5.02 1 4 C0.34 3.67 -0.32 3.34 -1 3 C-0.67 2.01 -0.34 1.02 0 0 Z " fill="#C25FEC" transform="translate(297,304)"/>
<path d="M0 0 C1.58705846 -0.01188896 3.17414296 -0.02033271 4.76123047 -0.02734375 C6.08693558 -0.03495728 6.08693558 -0.03495728 7.43942261 -0.04272461 C10.7308798 0.01219512 13.88231704 0.44805396 17.125 1 C18.79949219 1.2784375 18.79949219 1.2784375 20.5078125 1.5625 C21.33023438 1.706875 22.15265625 1.85125 23 2 C23 2.33 23 2.66 23 3 C17.59331232 4.17536689 13.67465882 3.69923991 8.33203125 2.27734375 C5.5279444 1.94385938 4.42489594 2.66957981 2 4 C1.97520329 9.30191714 1.95709422 14.6038002 1.94506836 19.90576172 C1.94005267 21.70785104 1.93323854 23.50993631 1.92456055 25.31201172 C1.91237364 27.90853882 1.90674394 30.50501192 1.90234375 33.1015625 C1.89718246 33.9017984 1.89202118 34.7020343 1.88670349 35.52651978 C1.88627826 39.80708475 2.19355199 43.77874871 3 48 C3.06305204 49.79067806 3.08671114 51.58337579 3.0625 53.375 C3.05347656 54.24898438 3.04445312 55.12296875 3.03515625 56.0234375 C3.02355469 56.67570312 3.01195312 57.32796875 3 58 C2.67 58 2.34 58 2 58 C-0.35863038 45.70161725 -0.231859 33.59524392 -0.125 21.125 C-0.11494549 19.0690148 -0.10582403 17.01302481 -0.09765625 14.95703125 C-0.07584925 9.97123383 -0.0414569 4.98567116 0 0 Z " fill="#9FBCEF" transform="translate(222,276)"/>
<path d="M0 0 C0.33 0 0.66 0 1 0 C1 5.28 1 10.56 1 16 C1.66 16 2.32 16 3 16 C3.19517554 17.93674185 3.38087873 19.87444009 3.5625 21.8125 C3.66691406 22.89144531 3.77132812 23.97039062 3.87890625 25.08203125 C4 28 4 28 3 31 C2.94224039 32.37381655 2.93832201 33.75039852 2.97265625 35.125 C2.98490234 35.91390625 2.99714844 36.7028125 3.00976562 37.515625 C3.04492373 39.17196248 3.08398688 40.82822167 3.12695312 42.484375 C3.13791016 43.27328125 3.14886719 44.0621875 3.16015625 44.875 C3.17699463 45.59429687 3.19383301 46.31359375 3.21118164 47.0546875 C3 49 3 49 1 52 C0.17115689 45.52699343 -0.13530112 39.2362945 -0.09765625 32.71484375 C-0.0962413 31.77314835 -0.09482635 30.83145294 -0.09336853 29.86122131 C-0.08782122 26.88661368 -0.07527887 23.91208445 -0.0625 20.9375 C-0.05747818 18.90690214 -0.05291647 16.87630308 -0.04882812 14.84570312 C-0.03786912 9.89710572 -0.02064152 4.9485661 0 0 Z " fill="#7ACAF4" transform="translate(107,80)"/>
<path d="M0 0 C11.63348587 5.19262889 18.26695693 21.96494932 23 33 C23.698279 35.8095461 23.94192691 38.09634529 24 41 C23.01 41.495 23.01 41.495 22 42 C21.87625 40.865625 21.7525 39.73125 21.625 38.5625 C21.41875 37.386875 21.2125 36.21125 21 35 C20.34 34.67 19.68 34.34 19 34 C19 33.34 19 32.68 19 32 C18.34 31.67 17.68 31.34 17 31 C17 29.02 17 27.04 17 25 C16.38125 24.79375 15.7625 24.5875 15.125 24.375 C12.15346355 22.45224112 11.86975341 20.33405473 11 17 C10.67 17 10.34 17 10 17 C10 15.35 10 13.7 10 12 C9.34 12 8.68 12 8 12 C7.0234375 10.20963542 6.046875 8.41927083 5.0703125 6.62890625 C4.08589976 4.83381685 4.08589976 4.83381685 2 4 C1.67 4.66 1.34 5.32 1 6 C0.67 4.02 0.34 2.04 0 0 Z " fill="#9068EB" transform="translate(191,120)"/>
<path d="M0 0 C14 0 14 0 20 2 C16.04294544 3.45839897 12.30168612 2.67906093 8.25 2.0625 C7.55261719 1.96259766 6.85523437 1.86269531 6.13671875 1.75976562 C4.42348274 1.51334127 2.71159275 1.25759045 1 1 C1.11946252 6.88593005 1.24377149 12.77173195 1.37231445 18.6574707 C1.41527018 20.65418818 1.45696731 22.65093319 1.49731445 24.64770508 C1.71669051 35.46213198 1.95912848 46.22729905 3 57 C2.34 57 1.68 57 1 57 C1 53.7 1 50.4 1 47 C0.34 47 -0.32 47 -1 47 C-0.67 31.49 -0.34 15.98 0 0 Z " fill="#E3F9FE" transform="translate(106,79)"/>
<path d="M0 0 C9.45815972 3.54464853 17.76115508 8.995353 25 16 C24.34 16.33 23.68 16.66 23 17 C21.82780457 16.21654285 20.66236332 15.42297164 19.5 14.625 C18.8503125 14.18414062 18.200625 13.74328125 17.53125 13.2890625 C17.0259375 12.86367188 16.520625 12.43828125 16 12 C16 11.34 16 10.68 16 10 C14.68 10 13.36 10 12 10 C11.67 9.34 11.34 8.68 11 8 C10.21625 8.165 9.4325 8.33 8.625 8.5 C6 9 6 9 4 9 C4 8.34 4 7.68 4 7 C3.01 6.67 2.02 6.34 1 6 C0.67 4.02 0.34 2.04 0 0 Z " fill="#B171F1" transform="translate(272,287)"/>
<path d="M0 0 C0.99 0 1.98 0 3 0 C-1.05883199 28.80780752 -1.05883199 28.80780752 -8 37 C-8 35.35 -8 33.7 -8 32 C-7.34 32 -6.68 32 -6 32 C-5.05844645 26.61969398 -4.31158515 21.21782486 -3.78515625 15.78125 C-3.20984848 10.20984848 -3.20984848 10.20984848 -1 8 C-0.54188325 6.02764667 -0.54188325 6.02764667 -0.375 3.875 C-0.189375 1.956875 -0.189375 1.956875 0 0 Z " fill="#E65AE7" transform="translate(389,128)"/>
<path d="M0 0 C2.475 0.99 2.475 0.99 5 2 C5 1.34 5 0.68 5 0 C5.66 0 6.32 0 7 0 C6 3 6 3 4 4 C4.46510077 10.82147797 6.92356685 16.92380493 10 23 C10.66 23.33 11.32 23.66 12 24 C12 24.66 12 25.32 12 26 C12.66 26.33 13.32 26.66 14 27 C13.67 27.66 13.34 28.32 13 29 C13.66 29.33 14.32 29.66 15 30 C14.67 30.99 14.34 31.98 14 33 C10.34141139 29.79974007 8.39716029 26.24300993 6.4375 21.875 C6.13448975 21.21137451 5.83147949 20.54774902 5.51928711 19.86401367 C2.6336293 13.41404133 0 7.13951911 0 0 Z " fill="#9ED1F4" transform="translate(225,335)"/>
<path d="M0 0 C1.11375 0.2475 1.11375 0.2475 2.25 0.5 C5.19006578 1.11925696 5.19006578 1.11925696 9 1 C9 1.99 9 2.98 9 4 C9.598125 4.12375 10.19625 4.2475 10.8125 4.375 C13 5 13 5 16 7 C16.825 6.979375 17.65 6.95875 18.5 6.9375 C21 7 21 7 22.5 8.5625 C22.995 9.036875 23.49 9.51125 24 10 C26.52391899 9.74524194 26.52391899 9.74524194 29 9 C29.99 9 30.98 9 32 9 C32.495 9.99 32.495 9.99 33 11 C32.67 11.99 32.34 12.98 32 14 C25.87148442 13.01506 20.52928065 11.10495913 14.875 8.625 C14.20662109 8.33294678 13.53824219 8.04089355 12.84960938 7.73999023 C8.39893579 5.74540881 4.20109144 3.47700716 0 1 C0 0.67 0 0.34 0 0 Z " fill="#CCB8F2" transform="translate(273,401)"/>
<path d="M0 0 C0.66 0.33 1.32 0.66 2 1 C0.75267893 4.74196321 -0.8391591 5.12255152 -4.18359375 6.90625 C-6.22677016 8.03180722 -6.22677016 8.03180722 -8.3125 10.375 C-12.44797417 14.41430035 -18.03984207 19 -24 19 C-22.71034824 17.62437146 -21.37310707 16.29233607 -20 15 C-19.34 15 -18.68 15 -18 15 C-18 14.34 -18 13.68 -18 13 C-16.6706543 11.79492188 -16.6706543 11.79492188 -14.82421875 10.46875 C-14.16099609 9.98792969 -13.49777344 9.50710937 -12.81445312 9.01171875 C-12.11255859 8.51285156 -11.41066406 8.01398438 -10.6875 7.5 C-9.65206055 6.75169922 -9.65206055 6.75169922 -8.59570312 5.98828125 C-5.75859558 3.94337088 -2.91033987 1.94022658 0 0 Z " fill="#D6C6F6" transform="translate(320,82)"/>
<path d="M0 0 C0 0.66 0 1.32 0 2 C-0.98742187 2.47050781 -1.97484375 2.94101563 -2.9921875 3.42578125 C-4.286666 4.05425994 -5.58092553 4.68318981 -6.875 5.3125 C-7.52597656 5.62123047 -8.17695313 5.92996094 -8.84765625 6.24804688 C-12.19676398 7.88807385 -13.89005879 8.83508818 -16 12 C-17.155 12.61875 -18.31 13.2375 -19.5 13.875 C-22.28491622 15.36878042 -22.90617336 15.82050555 -24.4375 18.75 C-24.623125 19.4925 -24.80875 20.235 -25 21 C-25.66 21 -26.32 21 -27 21 C-27.36192847 17.83312588 -27.21542966 16.33782029 -25.48046875 13.6171875 C-22.35764047 10.32223482 -19.03640356 8.43891877 -15.0625 6.3125 C-14.35931641 5.92255859 -13.65613281 5.53261719 -12.93164062 5.13085938 C-3.57330395 0 -3.57330395 0 0 0 Z " fill="#AF6FEA" transform="translate(352,89)"/>
<path d="M0 0 C0.33 0 0.66 0 1 0 C2.34862385 29.21406728 2.34862385 29.21406728 1 43 C5.95 43 10.9 43 16 43 C16 43.33 16 43.66 16 44 C8.08 44.99 8.08 44.99 0 46 C0 30.82 0 15.64 0 0 Z " fill="#B3A8F1" transform="translate(280,180)"/>
<path d="M0 0 C-10.19902548 4.63419407 -21.61074721 9.47019851 -33 9 C-32.67 8.01 -32.34 7.02 -32 6 C-30.6078125 6.0928125 -30.6078125 6.0928125 -29.1875 6.1875 C-26.00705851 6.37085979 -26.00705851 6.37085979 -24.5625 4.4375 C-24.046875 3.963125 -23.53125 3.48875 -23 3 C-20.6618385 3.29758419 -18.32817964 3.63239269 -16 4 C-14.01255385 3.15231584 -14.01255385 3.15231584 -12 2 C-10.49105031 1.40635775 -8.96947834 0.84389689 -7.4375 0.3125 C-6.67308594 0.04050781 -5.90867187 -0.23148438 -5.12109375 -0.51171875 C-3 -1 -3 -1 0 0 Z " fill="#C996F2" transform="translate(329,214)"/>
<path d="M0 0 C0.99 0.33 1.98 0.66 3 1 C1.37676928 3.12637234 -0.2484953 5.25113436 -1.875 7.375 C-2.33519531 7.97828125 -2.79539062 8.5815625 -3.26953125 9.203125 C-5.09372941 11.58251391 -6.87741212 13.87741212 -9 16 C-11.625 16.125 -11.625 16.125 -14 16 C-13.8125 14.1875 -13.8125 14.1875 -13 12 C-8.82142857 9 -8.82142857 9 -6 9 C-6 8.01 -6 7.02 -6 6 C-5.01 5.67 -4.02 5.34 -3 5 C-2.67 4.34 -2.34 3.68 -2 3 C-1.34 3 -0.68 3 0 3 C0 2.01 0 1.02 0 0 Z " fill="#EA6FEA" transform="translate(374,173)"/>
<path d="M0 0 C2.125 0.375 2.125 0.375 4 1 C2.21427748 2.83947337 0.42197551 4.67157741 -1.375 6.5 C-1.88289063 7.02464844 -2.39078125 7.54929688 -2.9140625 8.08984375 C-4.23832604 9.43153181 -5.61605865 10.71995815 -7 12 C-7.66 12 -8.32 12 -9 12 C-9 12.66 -9 13.32 -9 14 C-11.31 15.32 -13.62 16.64 -16 18 C-16.33 17.01 -16.66 16.02 -17 15 C-15.02 14.34 -13.04 13.68 -11 13 C-11 12.34 -11 11.68 -11 11 C-10.34 11 -9.68 11 -9 11 C-9 10.34 -9 9.68 -9 9 C-7.125 6.875 -7.125 6.875 -5 5 C-4.34 5 -3.68 5 -3 5 C-2.67 4.01 -2.34 3.02 -2 2 C-1.34 1.34 -0.68 0.68 0 0 Z " fill="#E7C3F7" transform="translate(379,199)"/>
<path d="M0 0 C0.33 0 0.66 0 1 0 C1.22174933 1.45635371 1.42698698 2.91522956 1.625 4.375 C1.74101562 5.18710938 1.85703125 5.99921875 1.9765625 6.8359375 C1.98429687 7.55007812 1.99203125 8.26421875 2 9 C1.34 9.66 0.68 10.32 0 11 C-0.45662153 13.19291082 -0.820412 15.40585889 -1.125 17.625 C-1.29257812 18.81351563 -1.46015625 20.00203125 -1.6328125 21.2265625 C-1.75398438 22.14179688 -1.87515625 23.05703125 -2 24 C-1.34 24.33 -0.68 24.66 0 25 C-0.33 25.33 -0.66 25.66 -1 26 C-1.03165882 28.52366033 -0.93175288 31.03270105 -0.83984375 33.5546875 C-1 36 -1 36 -3 39 C-3.32355928 25.64446841 -3.4932291 12.97485094 0 0 Z " fill="#9493EE" transform="translate(284,158)"/>
<path d="M0 0 C2.97 0 5.94 0 9 0 C9 0.66 9 1.32 9 2 C9.99 2.33 10.98 2.66 12 3 C12 3.66 12 4.32 12 5 C5.83381819 5.40214229 0.82254243 3.96818336 -5 2 C-4.01 1.67 -3.02 1.34 -2 1 C-1.34 1.33 -0.68 1.66 0 2 C0 1.34 0 0.68 0 0 Z " fill="#99B0F6" transform="translate(191,218)"/>
<path d="M0 0 C4.7918287 0.58436935 8.61806654 2.00122333 13 4 C17.90234852 6.11896269 17.90234852 6.11896269 22.875 8.0625 C25 9 25 9 26 11 C16.68524157 9.74236941 8.27013154 5.29410676 0 1 C0 0.67 0 0.34 0 0 Z " fill="#93C4ED" transform="translate(160,208)"/>
<path d="M0 0 C12.82919255 3.94099379 12.82919255 3.94099379 15.8125 9.1875 C16.204375 10.115625 16.59625 11.04375 17 12 C16.34 12.66 15.68 13.32 15 14 C14.34 14 13.68 14 13 14 C13.33 12.68 13.66 11.36 14 10 C13.34 10 12.68 10 12 10 C11.67 9.01 11.34 8.02 11 7 C9.9275 6.9175 8.855 6.835 7.75 6.75 C3.72149234 5.94429847 2.43794344 5.21808534 0 2 C0 1.34 0 0.68 0 0 Z " fill="#828AEC" transform="translate(148,89)"/>
<path d="M0 0 C0.33 0 0.66 0 1 0 C1 7.59 1 15.18 1 23 C-3.7952637 25.39763185 -5.1705054 24.84784129 -10.25 23.625 C-11.51328125 23.32851563 -12.7765625 23.03203125 -14.078125 22.7265625 C-15.04234375 22.48679687 -16.0065625 22.24703125 -17 22 C-17 21.67 -17 21.34 -17 21 C-15.52093108 20.97310784 -14.04172517 20.95365379 -12.5625 20.9375 C-11.73878906 20.92589844 -10.91507812 20.91429687 -10.06640625 20.90234375 C-8 21 -8 21 -7 22 C-5.02 22 -3.04 22 -1 22 C-0.67 14.74 -0.34 7.48 0 0 Z " fill="#DF83EF" transform="translate(323,394)"/>
<path d="M0 0 C3.80380709 2.07177584 6.46450897 4.3068869 9.3125 7.5625 C10.00988281 8.34753906 10.70726562 9.13257813 11.42578125 9.94140625 C13 12 13 12 13 14 C12.34 14 11.68 14 11 14 C10.2575 13.030625 9.515 12.06125 8.75 11.0625 C6.65345698 8.40270661 6.16617691 8.04389579 2.6875 7.125 C1.800625 7.08375 0.91375 7.0425 0 7 C0.33 6.01 0.66 5.02 1 4 C0.34 3.67 -0.32 3.34 -1 3 C-0.67 2.01 -0.34 1.02 0 0 Z " fill="#BB6EE7" transform="translate(297,304)"/>
<path d="M0 0 C13.625 0.75 13.625 0.75 17 3 C11.73578214 4.43569578 7.1267211 3.70890703 2 2 C1.67 6.62 1.34 11.24 1 16 C0.67 16 0.34 16 0 16 C0 10.72 0 5.44 0 0 Z " fill="#70A4E9" transform="translate(108,80)"/>
<path d="M0 0 C7.52719602 -0.25515919 14.58851545 0.71702277 22 2 C22 2.33 22 2.66 22 3 C17.52342629 3.9731682 14.35473294 3.99037137 9.875 2.9375 C5.93578214 2.0307593 3.608224 1.8350656 0 4 C0 2.68 0 1.36 0 0 Z " fill="#9E9FEE" transform="translate(223,276)"/>
<path d="M0 0 C1.65 0 3.3 0 5 0 C1.26114468 3.28566074 -2.27456999 5.39672911 -7 7 C-9.9375 6.6875 -9.9375 6.6875 -12 6 C-12 5.01 -12 4.02 -12 3 C-8.98968256 2.06576355 -8.13349732 1.95550089 -5 3 C-2.36195411 2.60602665 -2.36195411 2.60602665 0 2 C0 1.34 0 0.68 0 0 Z " fill="#D591ED" transform="translate(336,207)"/>
<path d="M0 0 C1.32 0 2.64 0 4 0 C5.66666667 1.66666667 7.33333333 3.33333333 9 5 C10.32 5 11.64 5 13 5 C13 5.66 13 6.32 13 7 C13.99 7.33 14.98 7.66 16 8 C15.67 9.32 15.34 10.64 15 12 C12.87023794 10.56915986 10.74629998 9.13078954 8.625 7.6875 C8.02171875 7.28337891 7.4184375 6.87925781 6.796875 6.46289062 C3.88323163 4.47190099 1.98035421 2.97053132 0 0 Z " fill="#8BCCF3" transform="translate(144,196)"/>
<path d="M0 0 C7.08703739 0.54515672 13.32796106 2.60918605 20 5 C19.67 5.99 19.34 6.98 19 8 C17.35 7.34 15.7 6.68 14 6 C14 5.34 14 4.68 14 4 C13.319375 4.226875 12.63875 4.45375 11.9375 4.6875 C7.92807486 5.11403459 5.54618722 3.80654821 2 2 C1.34 1.34 0.68 0.68 0 0 Z " fill="#A38AED" transform="translate(246,279)"/>
<path d="M0 0 C4.48320008 1.40900574 6.75546169 3.67434824 10 7 C10.928125 7.556875 11.85625 8.11375 12.8125 8.6875 C13.534375 9.120625 14.25625 9.55375 15 10 C15 10.66 15 11.32 15 12 C15.99 12.33 16.98 12.66 18 13 C17.01 13.495 17.01 13.495 16 14 C14.26972464 12.75153512 12.54083043 11.50115598 10.8125 10.25 C9.84957031 9.55390625 8.88664062 8.8578125 7.89453125 8.140625 C2.31359517 4.01329305 2.31359517 4.01329305 0 2 C0 1.34 0 0.68 0 0 Z " fill="#C0C6F0" transform="translate(255,387)"/>
<path d="M0 0 C2.35059353 2.35059353 2.25400789 2.93334941 2.4375 6.125 C2.79142328 10.20167183 3.81752115 13.4417989 5.3671875 17.203125 C6.18305292 19.51977988 6.22798949 21.56811209 6 24 C2.99480929 20.61600374 2.2057664 17.52043786 1.3125 13.125 C1.06113281 11.93132812 0.80976562 10.73765625 0.55078125 9.5078125 C0.04147497 6.26414553 -0.10516835 3.27524291 0 0 Z " fill="#78DAEF" transform="translate(109,132)"/>
<path d="M0 0 C0.33 0.99 0.66 1.98 1 3 C-5.75 7 -5.75 7 -8 7 C-8 7.66 -8 8.32 -8 9 C-9.65 9.66 -11.3 10.32 -13 11 C-13.66 10.34 -14.32 9.68 -15 9 C-10.05 6.03 -5.1 3.06 0 0 Z " fill="#FDE8FE" transform="translate(349,202)"/>
<path d="M0 0 C3 0 3 0 5.6875 2.375 C8 5 8 5 8 7 C9.32 6.67 10.64 6.34 12 6 C11.67 6.99 11.34 7.98 11 9 C11.99 8.67 12.98 8.34 14 8 C13.67 9.32 13.34 10.64 13 12 C9.34435261 10.46563424 7.01301377 8.25017578 4.25 5.4375 C3.45078125 4.63183594 2.6515625 3.82617188 1.828125 2.99609375 C0 1 0 1 0 0 Z " fill="#81DAF4" transform="translate(131,184)"/>
<path d="M0 0 C1.0725 0.103125 2.145 0.20625 3.25 0.3125 C2.38375 0.93125 2.38375 0.93125 1.5 1.5625 C-1.89370875 4.20205125 -4.37124484 6.17623451 -5.75 10.3125 C-6.41 10.3125 -7.07 10.3125 -7.75 10.3125 C-8.1298302 6.98898571 -7.83420069 5.46406124 -6.1875 2.5 C-3.75 0.3125 -3.75 0.3125 0 0 Z " fill="#AC6AF8" transform="translate(332.75,99.6875)"/>
<path d="M0 0 C0.33 0.66 0.66 1.32 1 2 C1.66 2 2.32 2 3 2 C2.67 2.99 2.34 3.98 2 5 C-1 6 -1 6 -4 6 C-4 6.66 -4 7.32 -4 8 C-4.66 8 -5.32 8 -6 8 C-5.8125 5.6875 -5.8125 5.6875 -5 3 C-2.4375 1.1875 -2.4375 1.1875 0 0 Z " fill="#9276F3" transform="translate(308,121)"/>
<path d="M0 0 C-6.89715536 5.88183807 -6.89715536 5.88183807 -11.5 6.375 C-12.325 6.25125 -13.15 6.1275 -14 6 C-13.67 5.34 -13.34 4.68 -13 4 C-10.4375 3.375 -10.4375 3.375 -8 3 C-7.67 2.01 -7.34 1.02 -7 0 C-3.86650268 -1.04449911 -3.01031744 -0.93423645 0 0 Z " fill="#E183F2" transform="translate(351,201)"/>
<path d="M0 0 C-0.78246094 0.20496094 -1.56492187 0.40992188 -2.37109375 0.62109375 C-3.38300781 0.89050781 -4.39492188 1.15992187 -5.4375 1.4375 C-6.44683594 1.70433594 -7.45617187 1.97117187 -8.49609375 2.24609375 C-10.91752001 2.75978077 -10.91752001 2.75978077 -12 4 C-13.51928038 4.07179964 -15.04167482 4.08392007 -16.5625 4.0625 C-17.38878906 4.05347656 -18.21507812 4.04445313 -19.06640625 4.03515625 C-19.70449219 4.02355469 -20.34257812 4.01195313 -21 4 C-18.26384911 1.26384911 -15.29411979 1.01783269 -11.625 0.3125 C-10.95210938 0.17005859 -10.27921875 0.02761719 -9.5859375 -0.11914062 C-6.12276689 -0.80427575 -3.35116246 -1.28031592 0 0 Z " fill="#C6AAEC" transform="translate(378,63)"/>
<path d="M0 0 C0.99 0.99 1.98 1.98 3 3 C2.67 3.99 2.34 4.98 2 6 C-2.455 5.01 -2.455 5.01 -7 4 C-5.68 3.34 -4.36 2.68 -3 2 C-2.01 1.34 -1.02 0.68 0 0 Z " fill="#DEA4F4" transform="translate(303,409)"/>
<path d="M0 0 C0.9659657 2.60810739 1.02770914 3.89420147 0.3125 6.625 C-1.16625774 9.30084735 -2.17750049 9.96508351 -5 11 C-4.32902328 6.80639551 -2.1441606 3.59665648 0 0 Z " fill="#DBCBF7" transform="translate(275,128)"/>
<path d="M0 0 C6.20970773 -0.33266291 10.28264895 0.54970669 16 3 C15.67 3.66 15.34 4.32 15 5 C8.25 4.25 8.25 4.25 6 2 C4.01178687 1.60235737 2.01055661 1.26224651 0 1 C0 0.67 0 0.34 0 0 Z " fill="#7B96ED" transform="translate(128,84)"/>
<path d="M0 0 C-5.94 3.465 -5.94 3.465 -12 7 C-12.33 6.01 -12.66 5.02 -13 4 C-11.02 3.67 -9.04 3.34 -7 3 C-6.67 2.01 -6.34 1.02 -6 0 C-4 -1 -4 -1 0 0 Z " fill="#E4B9F6" transform="translate(360,220)"/>
<path d="M0 0 C0.33 0 0.66 0 1 0 C1.99 5.28 2.98 10.56 4 16 C3.34 15.67 2.68 15.34 2 15 C2 14.01 2 13.02 2 12 C1.34 12 0.68 12 0 12 C-0.92844389 7.66726186 -0.92844389 4.33273814 0 0 Z " fill="#DEFCFD" transform="translate(109,138)"/>
<path d="M0 0 C8.94161491 0.90931677 8.94161491 0.90931677 13 3 C13.33 3.66 13.66 4.32 14 5 C8.94744036 4.36843005 4.70406799 2.86540627 0 1 C0 0.67 0 0.34 0 0 Z " fill="#9CBEF0" transform="translate(172,214)"/>
<path d="M0 0 C4.18423892 3.50897269 8.19588166 7.08060535 12 11 C6.20998801 9.75928315 3.19419062 6.80261285 0 2 C0 1.34 0 0.68 0 0 Z " fill="#DCFCFE" transform="translate(133,187)"/>
<path d="M0 0 C0.66 0.33 1.32 0.66 2 1 C1.33989524 3.84550012 0.48275034 6.52325999 -0.5625 9.25 C-0.83191406 9.95640625 -1.10132813 10.6628125 -1.37890625 11.390625 C-1.68634766 12.18726563 -1.68634766 12.18726563 -2 13 C-2.33 13 -2.66 13 -3 13 C-3.31563182 7.73946963 -2.66590937 4.55426184 0 0 Z " fill="#E1BAF6" transform="translate(405,157)"/>
<path d="M0 0 C3.42025316 3.42025316 3.95344801 7.71982025 4.125 12.4375 C4.08375 13.283125 4.0425 14.12875 4 15 C0.73154287 10.09731431 -0.27944109 5.86826297 0 0 Z " fill="#C260E6" transform="translate(319,335)"/>
<path d="M0 0 C1.32 0.66 2.64 1.32 4 2 C4 2.66 4 3.32 4 4 C5.98 4.66 7.96 5.32 10 6 C10 6.66 10 7.32 10 8 C9.236875 7.690625 8.47375 7.38125 7.6875 7.0625 C5.81210323 6.32106407 3.91315348 5.63771783 2 5 C2 4.34 2 3.68 2 3 C0.68 2.67 -0.64 2.34 -2 2 C-1.34 1.34 -0.68 0.68 0 0 Z " fill="#C2B8F9" transform="translate(147,221)"/>
<path d="M0 0 C1.33332095 2.6666419 0.67102033 4.16680303 0 7 C-1.65 7 -3.3 7 -5 7 C-4.60196439 4.11424181 -4.20990931 3.17810487 -1.9375 1.25 C-1.298125 0.8375 -0.65875 0.425 0 0 Z " fill="#F167F7" transform="translate(365,182)"/>
<path d="M0 0 C5.77807024 -0.2358396 10.51324804 0.13216954 16 2 C16 2.66 16 3.32 16 4 C10.72 3.01 5.44 2.02 0 1 C0 0.67 0 0.34 0 0 Z " fill="#E89DF0" transform="translate(306,415)"/>
<path d="M0 0 C0.3125 2.3125 0.3125 2.3125 0 5 C-2.3125 6.875 -2.3125 6.875 -5 8 C-5.99 7.67 -6.98 7.34 -8 7 C-6.8572081 5.83035398 -5.71068285 4.66435444 -4.5625 3.5 C-3.92441406 2.8503125 -3.28632813 2.200625 -2.62890625 1.53125 C-1 0 -1 0 0 0 Z " fill="#9E81EE" transform="translate(313,114)"/>
<path d="M0 0 C0 4.24645065 -1.81750806 6.38524772 -4 10 C-4.66 8.68 -5.32 7.36 -6 6 C-5.34 6 -4.68 6 -4 6 C-3.896875 5.38125 -3.79375 4.7625 -3.6875 4.125 C-3 2 -3 2 0 0 Z " fill="#DFB0F6" transform="translate(399,175)"/>
<path d="M0 0 C0.66 0.33 1.32 0.66 2 1 C2 1.99 2 2.98 2 4 C1.01 4.495 1.01 4.495 0 5 C-0.66 5.99 -1.32 6.98 -2 8 C-3 7 -3 7 -3.25 4.5625 C-3.1675 3.716875 -3.085 2.87125 -3 2 C-2.01 1.34 -1.02 0.68 0 0 Z " fill="#9B6DF8" transform="translate(316,112)"/>
<path d="M0 0 C4 2 4 2 5.8125 5.4375 C7 9 7 9 6 12 C4.02 8.04 2.04 4.08 0 0 Z " fill="#FCE5FE" transform="translate(312,320)"/>
<path d="M0 0 C1.98 0.99 1.98 0.99 4 2 C4 2.66 4 3.32 4 4 C4.66 4 5.32 4 6 4 C6 4.66 6 5.32 6 6 C3.03 5.505 3.03 5.505 0 5 C0 3.35 0 1.7 0 0 Z " fill="#C453FA" transform="translate(304,314)"/>
<path d="M0 0 C0.75 1.75 0.75 1.75 1 4 C-0.8125 6.25 -0.8125 6.25 -3 8 C-3.66 8 -4.32 8 -5 8 C-3.8141763 4.62496331 -2.72426311 2.35277269 0 0 Z " fill="#C6B8F5" transform="translate(286,112)"/>
<path d="M0 0 C0 0.66 0 1.32 0 2 C-1.26418246 2.69965443 -2.53665402 3.38434763 -3.8125 4.0625 C-4.52019531 4.44535156 -5.22789062 4.82820313 -5.95703125 5.22265625 C-8 6 -8 6 -11 5 C-7.72709962 2.33319229 -4.35126896 0 0 0 Z " fill="#BB74ED" transform="translate(352,89)"/>
<path d="M0 0 C0.66 0.33 1.32 0.66 2 1 C1.67 1.99 1.34 2.98 1 4 C-1.9375 5.25 -1.9375 5.25 -5 6 C-5.66 5.67 -6.32 5.34 -7 5 C-4.69 3.35 -2.38 1.7 0 0 Z " fill="#CBACF6" transform="translate(320,82)"/>
<path d="M0 0 C1.32 0.33 2.64 0.66 4 1 C0.535 3.97 0.535 3.97 -3 7 C-2.25 2.25 -2.25 2.25 0 0 Z " fill="#DEBDF2" transform="translate(379,199)"/>
<path d="M0 0 C0.33 0.66 0.66 1.32 1 2 C1.99 1.67 2.98 1.34 4 1 C3.67 2.98 3.34 4.96 3 7 C2.01 6.67 1.02 6.34 0 6 C0 4.02 0 2.04 0 0 Z " fill="#60E1FB" transform="translate(115,150)"/>
<path d="M0 0 C1.70884005 1.62339805 3.37446717 3.29319053 5 5 C5 5.66 5 6.32 5 7 C3.35 7 1.7 7 0 7 C0 4.69 0 2.38 0 0 Z " fill="#DFBDF3" transform="translate(324,302)"/>
<path d="M0 0 C3.81300782 3.2870757 5.22972246 6.39727838 7 11 C6.34 11 5.68 11 5 11 C4.731875 10.030625 4.46375 9.06125 4.1875 8.0625 C3.795625 7.051875 3.40375 6.04125 3 5 C2.01 4.67 1.02 4.34 0 4 C0 2.68 0 1.36 0 0 Z " fill="#D2FCFE" transform="translate(120,169)"/>
<path d="M0 0 C1.9375 0.8125 1.9375 0.8125 4 2 C4.33 2.99 4.66 3.98 5 5 C4.34 5.66 3.68 6.32 3 7 C2.34 7 1.68 7 1 7 C1.33 5.68 1.66 4.36 2 3 C1.34 3 0.68 3 0 3 C0 2.01 0 1.02 0 0 Z " fill="#7F7EF9" transform="translate(160,96)"/>
<path d="M0 0 C2.125 0.9375 2.125 0.9375 4 2 C3.67 2.66 3.34 3.32 3 4 C1.35 4 -0.3 4 -2 4 C-2 3.01 -2 2.02 -2 1 C-1.34 0.67 -0.68 0.34 0 0 Z " fill="#D985F8" transform="translate(326,209)"/>
<path d="M0 0 C0.99 0.33 1.98 0.66 3 1 C1.75 3 1.75 3 0 5 C-1.32 5 -2.64 5 -4 5 C-4.66 4.34 -5.32 3.68 -6 3 C-5 2 -5 2 -2.4375 1.9375 C-1.2309375 1.9684375 -1.2309375 1.9684375 0 2 C0 1.34 0 0.68 0 0 Z " fill="#D450EB" transform="translate(385,81)"/>
<path d="M0 0 C0 1.32 0 2.64 0 4 C-4.875 2.25 -4.875 2.25 -6 0 C-2.25 -1.125 -2.25 -1.125 0 0 Z " fill="#DACBFB" transform="translate(257,411)"/>
<path d="M0 0 C2.375 0.25 2.375 0.25 5 1 C6.3125 3.0625 6.3125 3.0625 7 5 C6.01 5.495 6.01 5.495 5 6 C5 5.34 5 4.68 5 4 C4.34 4 3.68 4 3 4 C3 3.34 3 2.68 3 2 C2.01 1.67 1.02 1.34 0 1 C0 0.67 0 0.34 0 0 Z " fill="#DABBF6" transform="translate(239,401)"/>
<path d="M0 0 C0.66 0 1.32 0 2 0 C2 0.66 2 1.32 2 2 C2.66 2 3.32 2 4 2 C4.33 2.99 4.66 3.98 5 5 C4.01 5.33 3.02 5.66 2 6 C1.34 5.34 0.68 4.68 0 4 C0.33 3.34 0.66 2.68 1 2 C0.34 1.67 -0.32 1.34 -1 1 C-0.67 0.67 -0.34 0.34 0 0 Z " fill="#BF59F7" transform="translate(297,306)"/>
<path d="M0 0 C2.64 0.33 5.28 0.66 8 1 C4.5647952 3.29013653 3.014669 3.17842973 -1 3 C-0.67 2.01 -0.34 1.02 0 0 Z " fill="#BA9BEC" transform="translate(297,220)"/>
<path d="M0 0 C0.33 0.66 0.66 1.32 1 2 C-0.32 3.65 -1.64 5.3 -3 7 C-3.99 6.67 -4.98 6.34 -6 6 C-4.02 4.02 -2.04 2.04 0 0 Z " fill="#FFEBFF" transform="translate(368,185)"/>
<path d="M0 0 C0.99 0.33 1.98 0.66 3 1 C4.1875 4.0625 4.1875 4.0625 5 7 C2 6 2 6 0 3 C0 2.01 0 1.02 0 0 Z " fill="#CDCCF1" transform="translate(225,132)"/>
<path d="M0 0 C1.11375 0.598125 2.2275 1.19625 3.375 1.8125 C4.00148437 2.14894531 4.62796875 2.48539062 5.2734375 2.83203125 C7 4 7 4 9 7 C5.13066838 6.42676569 2.84777943 4.61046448 0 2 C0 1.34 0 0.68 0 0 Z " fill="#9384E8" transform="translate(171,101)"/>
</svg>
